<svg width="70" height="67" viewBox="0 0 70 67" fill="none" xmlns="http://www.w3.org/2000/svg">
<path d="M0.000240223 28.3884L0.000240201 31.1868C0.000240147 38.1005 4.85099 43.7796 11.1196 44.2735L11.1196 63.9446C11.1196 65.3438 12.0898 66.4138 13.3584 66.4138L21.2689 66.4138C22.5376 66.4138 23.5077 65.3438 23.5077 63.9446L23.5077 44.3558L24.7764 44.3558L24.7764 15.2195L11.9405 15.2195C5.37337 15.2195 0.00024028 21.1455 0.000240223 28.3884Z" fill="#FFDBAD"/>
<path d="M69.03 0.651483C68.433 0.157648 67.6121 0.0753415 66.9405 0.404565L30.0749 17.6888L30.0749 41.8044L66.9405 59.0887C68.0599 59.5825 69.4032 59.0064 69.8509 57.7718C70.0002 57.4426 70.0002 57.1133 70.0002 56.7841L70.0002 2.70913C70.0002 1.88607 69.6271 1.14532 69.03 0.651483Z" fill="#FFDBAD"/>
</svg>
